<?xml version="1.0" encoding="utf-8"?>
<!-- Generator: Adobe Illustrator 21.0.0, SVG Export Plug-In . SVG Version: 6.00 Build 0)  -->
<svg version="1.1" id="Ebene_1" xmlns="http://www.w3.org/2000/svg" xmlns:xlink="http://www.w3.org/1999/xlink" x="0px" y="0px"
	 viewBox="0 0 547 191" style="enable-background:new 0 0 547 191;" xml:space="preserve">
<style type="text/css">
	.st0{fill:#A21A17;}
	.st1{fill:#E30613;}
	.st2{fill:#FFFFFF;}
</style>
<g>
	<path d="M256,102.3c-1.3,0.5-2.4,0.9-3.3,1.2c-0.9,0.3-1.8,0.6-2.7,0.9c-0.9,0.3-2.1,0.6-3.7,1c-2.8,0.6-5.5,1.1-8.2,1.5
		c-2.7,0.3-5.6,0.5-8.7,0.5c-6.1,0-11.8-1.1-17-3.3c-5.2-2.2-9.3-5.7-12.5-10.4c-3.1-4.7-4.7-10.5-4.7-17.3c0-4.4,0.8-8.7,2.4-13
		c1.6-4.2,4.1-7.6,7.4-10.2c2.7-2.1,5.5-3.7,8.3-4.9c2.8-1.1,5.5-1.9,8.2-2.2c2.7-0.4,5.6-0.6,8.8-0.6c5.3,0,9.7,0.4,13.1,1.2
		c3.4,0.8,7.2,1.8,11.4,3.2v14.3c-2.7-1.6-5.6-2.9-8.7-4c-3-1.1-6.8-1.6-11.4-1.6c-5.2,0-9.4,1-12.6,3c-3.1,2-5.3,4.4-6.6,7.1
		c-1.2,2.8-1.8,5.4-1.8,8c0,3,0.7,5.9,2.1,8.4c1.4,2.6,3.6,4.6,6.4,6.2c2.9,1.6,6.3,2.3,10.4,2.3c2.3,0,4.8-0.3,7.4-0.9v-7.1H232
		V73.3H256V102.3z"/>
	<path d="M328.7,79.6c0,5.2-1,9.6-2.9,13.2c-1.9,3.6-4.5,6.5-7.7,8.6c-3.2,2.1-6.6,3.6-10.3,4.6c-3.7,0.9-7.3,1.4-11,1.4
		c-5.1,0-10.1-0.9-14.9-2.6c-4.8-1.7-8.9-4.7-12.1-8.9c-3.2-4.2-4.9-9.6-4.9-16.3V46.3h18.1v28.6c0,4,0.6,7.3,1.7,9.9
		c1.1,2.6,2.7,4.5,4.8,5.7c2,1.2,4.5,1.8,7.2,1.8c2.7,0,5-0.6,7.1-1.8c2.1-1.2,3.7-3.1,4.8-5.7c1.1-2.6,1.7-5.9,1.7-9.8V46.3h18.2
		V79.6z"/>
	<path d="M383.3,106.6h-45.8V46.3h18.2v45.9h27.6V106.6z"/>
	<path d="M462.4,106.6h-18.6l-4.9-12.2h-26.2l-5,12.2H389l26.7-60.3h20.1L462.4,106.6z M434.6,83.9l-8.8-22l-8.9,22H434.6z"/>
	<path d="M527.3,106.6h-19.5L503,95.9c-1.7-3.9-3.3-6.8-4.7-8.6c-1.4-1.8-2.7-3-4.1-3.5c-1.3-0.5-3-0.8-5.1-0.8h-2v23.5h-18.2V46.3
		h30.9c5,0,9.1,1,12.3,3c3.2,2,5.5,4.5,6.9,7.4c1.4,2.9,2.1,5.7,2.1,8.3c0,3-0.6,5.6-1.8,7.7c-1.2,2.1-2.4,3.6-3.7,4.6
		c-1.3,1-2.8,1.9-4.4,2.7c1.9,1.1,3.5,2.5,4.8,4c1.3,1.6,3,4.7,5.2,9.4L527.3,106.6z M502.6,65.3c0-2.8-0.9-4.7-2.7-5.8
		c-1.8-1.1-4.8-1.7-8.9-1.7h-3.8v14.5h3.9c4.4,0,7.5-0.5,9.1-1.5C501.8,70,502.6,68.1,502.6,65.3z"/>
	<path d="M188.3,106.6h-16.2L140.9,73v33.6h-18V46.3H140l30.2,33.4V46.3h18.1V106.6z"/>
	<g>
		<polygon class="st0" points="70,83.9 79,83.9 79,62.1 78.9,61.9 		"/>
		<polygon class="st0" points="65.7,94.4 60.7,106.6 42.1,106.6 68.8,46.3 79,46.3 79,13.4 41,13.4 15.8,33.5 15.8,116.3 79,172.2 
			79,94.4 		"/>
	</g>
	<g>
		<polygon class="st1" points="79,62.1 79,83.9 87.7,83.9 		"/>
		<polygon class="st1" points="140.9,106.6 122.9,106.6 122.9,46.3 140,46.3 140.1,46.5 140,33.8 114.6,13.4 79,13.4 79,46.3 
			88.9,46.3 115.4,106.6 96.8,106.6 91.9,94.4 79,94.4 79,172.2 141,116.3 		"/>
	</g>
	<g>
		<path class="st2" d="M115.4,106.6H96.8l-4.9-12.2H65.7l-5,12.2H42.1l26.7-60.3h20.1L115.4,106.6z M87.7,83.9l-8.8-22l-8.9,22H87.7
			z"/>
	</g>
	<g>
		<path class="st1" d="M169.3,128.6h23.5c17.1,0,21.3,9.8,21.3,22.2c0,9.4-4.3,21.4-19.1,21.4h-25.7V128.6z M178.4,165.3h12.9
			c6.6,0,13.6-2.1,13.6-14.9c0-14.2-9-15-14.1-15h-12.4V165.3z"/>
		<path class="st1" d="M233.8,128.6h10.9l19.4,43.6h-10.2l-4.6-10.8h-20.5l-4.5,10.8h-9.9L233.8,128.6z M246.5,154.5l-7.5-18.4
			l-7.6,18.4H246.5z"/>
		<path class="st1" d="M276,155.6l-19.1-27h11.2l12.5,19.4l12.5-19.4h11.2l-19.1,27v16.6H276V155.6z"/>
		<path class="st1" d="M324.6,127.4c6.7,0,20.2,1.2,21.3,13.9H336c-0.3-3.4-3.4-7-11-7c-6.1,0-10.1,1.9-10.1,6
			c0,10.3,32.5,0.4,32.5,19.1c0,11.2-11.7,14.2-20.9,14.2c-15.7,0-22-6.2-22.1-15.3h9.9c0.2,5.7,5,8.5,12.5,8.5
			c5.6,0,10.7-1.6,10.7-6.4c0-10.8-32.1-1.4-32.1-19.3C305.3,131.2,313.9,127.4,324.6,127.4z"/>
		<path d="M373.8,172.2c0-10.7,8.1-15.9,17-19.7c9-3.8,12.5-5.3,12.5-10c0-5.3-5.3-7-8.7-7c-6.7,0-10.1,3.5-10.6,9.1h-9.2
			c0-10.4,8.1-15.6,18.6-15.6c9.8,0,19,3.8,19,14.3c0,7.1-5.9,10.6-12.5,13.3c-6.5,2.6-13.6,4.4-15.9,8.9h28.3v6.8H373.8z"/>
		<path d="M436.7,173.2c-12.9,0-19.2-9.4-19.2-22.2c0-12.6,6.2-22,20.6-22c12.9,0,19.2,9.4,19.2,22
			C457.3,163.8,451.1,173.2,436.7,173.2z M437.4,135.4c-8.1,0-11.1,7.4-11.1,15.6c0,8.2,3.1,15.7,11.1,15.7
			c8.1,0,11.1-7.4,11.1-15.7C448.5,142.9,445.5,135.4,437.4,135.4z"/>
		<path d="M474.3,142.9h-12.8v-6.1h2.6c4.2,0,11-1.1,12.3-7.6h6.7v43h-8.8V142.9z"/>
		<path d="M489.8,129.9h38v7.4c-8.2,9-18,22.5-19.8,34.9h-10.6c1.2-11.7,13.4-27.5,21.3-35h-28.8V129.9z"/>
	</g>
</g>
</svg>
