<?xml version="1.0" encoding="utf-8"?>
<!-- Generator: Adobe Illustrator 21.0.0, SVG Export Plug-In . SVG Version: 6.00 Build 0)  -->
<svg version="1.1" id="Ebene_1" xmlns="http://www.w3.org/2000/svg" xmlns:xlink="http://www.w3.org/1999/xlink" x="0px" y="0px"
	 viewBox="0 0 595.3 214" style="enable-background:new 0 0 595.3 214;" xml:space="preserve">
<style type="text/css">
	.st0{fill:#FFFFFF;}
</style>
<path class="st0" d="M287.3,111.6c-1.3,0.5-2.4,0.9-3.3,1.2c-0.9,0.3-1.8,0.6-2.7,0.9c-0.9,0.3-2.1,0.6-3.7,1
	c-2.8,0.6-5.5,1.1-8.2,1.5c-2.7,0.3-5.6,0.5-8.7,0.5c-6.1,0-11.8-1.1-17-3.3c-5.2-2.2-9.3-5.7-12.5-10.4c-3.1-4.7-4.7-10.5-4.7-17.3
	c0-4.4,0.8-8.7,2.4-13c1.6-4.2,4.1-7.6,7.4-10.2c2.7-2.1,5.5-3.7,8.3-4.8c2.8-1.1,5.5-1.9,8.2-2.2c2.7-0.4,5.6-0.6,8.8-0.6
	c5.3,0,9.7,0.4,13.1,1.2c3.4,0.8,7.2,1.8,11.4,3.2v14.3c-2.7-1.6-5.6-2.9-8.7-4c-3-1.1-6.8-1.6-11.4-1.6c-5.2,0-9.4,1-12.6,3
	c-3.1,2-5.3,4.4-6.6,7.1c-1.2,2.8-1.8,5.4-1.8,8c0,3,0.7,5.8,2.1,8.4c1.4,2.6,3.6,4.6,6.4,6.2c2.9,1.6,6.3,2.3,10.4,2.3
	c2.3,0,4.8-0.3,7.4-0.9v-7.1h-8.2V82.7h24.1V111.6z"/>
<path class="st0" d="M359.9,88.9c0,5.2-1,9.6-2.9,13.2c-1.9,3.6-4.5,6.5-7.7,8.6c-3.2,2.1-6.6,3.6-10.3,4.6c-3.7,0.9-7.3,1.4-11,1.4
	c-5.1,0-10.1-0.9-14.9-2.6c-4.8-1.7-8.9-4.7-12.1-8.9c-3.2-4.2-4.9-9.6-4.9-16.3V55.6h18.1v28.6c0,4,0.6,7.3,1.7,9.9
	c1.1,2.6,2.7,4.5,4.8,5.7c2,1.2,4.5,1.8,7.2,1.8c2.7,0,5-0.6,7.1-1.8c2.1-1.2,3.7-3.1,4.8-5.7c1.1-2.6,1.7-5.9,1.7-9.8V55.6h18.2
	V88.9z"/>
<path class="st0" d="M414.5,115.9h-45.8V55.6h18.2v45.8h27.6V115.9z"/>
<path class="st0" d="M493.6,115.9H475l-4.9-12.2h-26.2l-5,12.2h-18.6l26.7-60.3H467L493.6,115.9z M465.9,93.2l-8.8-22l-8.9,22H465.9
	z"/>
<path class="st0" d="M558.5,115.9H539l-4.7-10.7c-1.7-3.9-3.3-6.8-4.7-8.6c-1.4-1.8-2.7-3-4.1-3.5c-1.3-0.5-3-0.8-5.1-0.8h-2v23.5
	h-18.2V55.6h30.9c5,0,9.1,1,12.3,3c3.2,2,5.5,4.5,6.9,7.4c1.4,2.9,2.1,5.7,2.1,8.3c0,3-0.6,5.6-1.8,7.7c-1.2,2.1-2.4,3.6-3.7,4.6
	c-1.3,1-2.8,1.9-4.4,2.7c1.9,1.1,3.5,2.5,4.8,4c1.3,1.6,3,4.7,5.2,9.4L558.5,115.9z M533.8,74.7c0-2.8-0.9-4.7-2.7-5.8
	c-1.8-1.1-4.8-1.7-8.9-1.7h-3.8v14.5h3.9c4.4,0,7.5-0.5,9.1-1.5C533,79.3,533.8,77.4,533.8,74.7z"/>
<polygon class="st0" points="110.3,71.4 110.2,71.2 101.3,93.2 110.3,93.2 119,93.2 "/>
<path class="st0" d="M153.3,116.7V54.8h18.1l-0.1-11.7l-25.4-20.3h-35.6H72.4L47.1,42.8v82.8l63.2,55.9l62-55.8l-0.1-8.9H153.3z
	 M128.1,115.9l-4.9-12.2h-12.9H97l-5,12.2H73.4l26.7-60.3h10.2h9.9l26.6,60.3H128.1z"/>
<polygon class="st0" points="218.8,115.1 218.8,56.5 202.3,56.5 202.3,91.2 170.9,56.5 155,56.5 155,115.1 171.3,115.1 171.3,80.2 
	203.8,115.1 "/>
<g>
	<path class="st0" d="M200.7,137.7h23.5c17.1,0,21.3,9.8,21.3,22.2c0,9.4-4.3,21.4-19.1,21.4h-25.7V137.7z M209.9,174.5h12.9
		c6.6,0,13.6-2.1,13.6-14.9c0-14.2-9-15-14.1-15h-12.4V174.5z"/>
	<path class="st0" d="M265.2,137.7H276l19.4,43.6h-10.2l-4.6-10.8h-20.5l-4.5,10.8h-9.9L265.2,137.7z M277.9,163.7l-7.4-18.4
		l-7.6,18.4H277.9z"/>
	<path class="st0" d="M307.4,164.7l-19-27h11.2l12.5,19.4l12.5-19.4h11.2l-19,27v16.6h-9.2V164.7z"/>
	<path class="st0" d="M356,136.5c6.7,0,20.1,1.2,21.3,13.9h-9.9c-0.3-3.4-3.4-7-11-7c-6.1,0-10.1,1.9-10.1,6
		c0,10.3,32.5,0.4,32.5,19c0,11.2-11.7,14.2-20.9,14.2c-15.7,0-22-6.2-22.1-15.3h9.9c0.2,5.7,5,8.5,12.5,8.5
		c5.6,0,10.7-1.6,10.7-6.4c0-10.8-32.1-1.4-32.1-19.3C336.7,140.3,345.3,136.5,356,136.5z"/>
	<path class="st0" d="M405.2,181.3c0-10.7,8.1-15.9,17-19.7c9-3.8,12.5-5.2,12.5-10c0-5.2-5.3-7-8.7-7c-6.7,0-10.1,3.5-10.6,9.1
		h-9.2c0-10.4,8.1-15.6,18.6-15.6c9.8,0,19,3.8,19,14.3c0,7.1-5.9,10.6-12.5,13.2c-6.5,2.6-13.6,4.4-15.9,8.9h28.3v6.8H405.2z"/>
	<path class="st0" d="M468,182.3c-12.9,0-19.2-9.4-19.2-22.2c0-12.6,6.2-22,20.6-22c12.9,0,19.2,9.4,19.2,22
		C488.7,172.9,482.4,182.3,468,182.3z M468.8,144.5c-8.1,0-11.1,7.4-11.1,15.6c0,8.2,3.1,15.7,11.1,15.7c8.1,0,11.1-7.4,11.1-15.7
		C479.9,152,476.8,144.5,468.8,144.5z"/>
	<path class="st0" d="M505.7,152h-12.8v-6.1h2.6c4.2,0,11-1.1,12.3-7.6h6.7v43h-8.8V152z"/>
	<path class="st0" d="M521.1,139.1h38v7.4c-8.2,9-17.9,22.5-19.8,34.9h-10.6c1.2-11.7,13.4-27.5,21.3-35h-28.8V139.1z"/>
</g>
</svg>
