<?xml version="1.0" encoding="utf-8"?>
<!-- Generator: Adobe Illustrator 19.2.1, SVG Export Plug-In . SVG Version: 6.00 Build 0)  -->
<svg version="1.1" id="Ebene_1" xmlns="http://www.w3.org/2000/svg" xmlns:xlink="http://www.w3.org/1999/xlink" x="0px" y="0px"
	 viewBox="0 0 512 257" style="enable-background:new 0 0 512 257;" xml:space="preserve">
<style type="text/css">
	.st0{fill:#AE1F4A;}
</style>
<path class="st0" d="M501,211.2c-5.6-0.3-10.1-1.4-15.6-6.4c-6.9-6.2-72.8-88.4-72.8-88.4l45.7-46.7c5.3-5.4,10.2-10,15.3-13.4
	c6.8-4.1,12.4-4.7,19.2-4.7c5.8,0,5.2,0,5.2,0V39.3l-57.4,0l0,12.4h16.7l-74.1,73.1l67.5,86.9H423V225h86v-13.8L501,211.2"/>
<path class="st0" d="M191.3,175.2L151.1,54.7l-26.2,15.1L89.5,175.2L56.7,51.6h22.8V39.4L3,39.3v12.3l8.9,0
	c4.4,0.1,8.2,2.6,10.5,5.2c2.2,2.6,4.3,7,6.2,13.2L72,225h16l43.3-136.8L175.5,225h15.8L191.3,175.2z"/>
<path class="st0" d="M279.4,240.3c-12.5-0.3-20.5-7.4-20.5-21.2l0-216.1h-17.6l-69.9,40.5l5.7,16.9l39.3-23v202.9l-23,0.1l0,13.5
	l94,0.1l0-13.7L279.4,240.3"/>
<path class="st0" d="M388.8,240.3c-12.5-0.3-20.5-7.4-20.5-21.2l0-216.1h-17.6l-69.9,40.5l5.7,16.9l39.3-23v202.9l-23,0.1l0,13.5
	l94,0.1l0-13.7L388.8,240.3"/>
</svg>
