<svg id="Ebene_1" data-name="Ebene 1" xmlns="http://www.w3.org/2000/svg" viewBox="0 0 265.1264 212.732"><defs><style>.cls-1{fill:#fe0;}</style></defs><title>webinale_logo</title><path class="cls-1" d="M217.1,400.1c1.9,43.2-64.6,21.7-70.7,21.9,0,0,42.1,34.1,121.7,33.6,17.1-.1,71.9-4.2,91.9-7.6,21.5-3.7,53.8-7.1,51.4-64.7,0,0-1.9-41.4-3.5-80-1.6-38.5-27.8-64.5-56.9-59.9l-86,12c-29.5,4.9-53.1,26.8-51.8,56.5Z" transform="translate(-146.4 -242.8734)"/><path d="M229,398.3l5.3-.7,6.6,16.4H241l2.1-17.5,5.1-.7,6.3,16.5h0.1l2.4-17.6,5.1-.7-4.2,23.7-5.2.7L246.3,402h-0.1l-2,17.4-5.3.7Z" transform="translate(-146.4 -242.8734)"/><path d="M268.2,406.1c0.5,3.6,2.8,6.5,7,5.9a5.4535,5.4535,0,0,0,5.1-4.5l4.8-.6c-0.5,5.1-4.3,8.4-9.3,9.1-7.1.9-11.8-3.5-12.7-10.5-0.8-6.5,2.7-12.6,9.5-13.4,7.2-.9,12.4,5,12.5,11.9Zm11.3-4.8c-0.6-3.1-3.1-5.7-6.5-5.3-3.5.4-5.5,3.4-5.2,6.8Z" transform="translate(-146.4 -242.8734)"/><path d="M284.8,382.3l5-.6,1.5,11.6h0.1a8.2735,8.2735,0,0,1,6.3-4.4c7.2-.9,11.4,4.1,12.2,10.7,0.8,6.1-1.6,12.3-8.3,13.2-3.1.4-6.5,0.1-8.4-2.7h-0.1l0.4,3.1-4.8.6Zm12.8,10.5c-4.2.5-6,4-5.3,8.9,0.6,4.6,3.4,7.7,7.4,7.2,4.6-.6,5.8-4.9,5.3-8.8C304.4,395.9,301.7,392.3,297.6,392.8Z" transform="translate(-146.4 -242.8734)"/><path d="M309.5,379.1l5-.6,0.6,4.8-5,.6Zm1.1,8.7,5-.6,2.9,22.8-5,.6Z" transform="translate(-146.4 -242.8734)"/><path d="M318.9,386.7l4.8-.6,0.4,3.3,0.1,0.1a8.3732,8.3732,0,0,1,6.6-5c4.9-.6,8.4,1.6,9.1,6.7l2,15.6-5,.6-1.8-14.3c-0.5-3.6-2.2-4.9-5.1-4.5-3.3.4-5.2,3.3-4.7,6.7l1.7,13.4-5,.6Z" transform="translate(-146.4 -242.8734)"/><path d="M363.8,398.9c0.2,1.2.5,1.7,1.4,1.6a7.3845,7.3845,0,0,0,1.2-.2l0.4,3.5a11.2441,11.2441,0,0,1-3.1,1c-2,.3-3.6-0.3-4.2-2.3-1.7,2.2-4.8,3.4-7.5,3.8-4.1.5-8.1-1.2-8.6-5.6-0.7-5.7,3.7-7.2,7.8-8.2,3.5-1.1,6.8-1.1,6.4-4.1-0.3-2.6-3.1-2.7-5.1-2.5-2.8.4-4.7,1.8-4.6,4.3l-5,.6c-0.4-5.9,4.4-8.3,9.4-8.9,4.4-.6,9.3.6,10,5.4Zm-5.9-5.7c-1.4,1.2-3.8,1.5-6,2.2-2.1.6-3.9,1.7-3.6,4.3,0.3,2.2,3.2,2.5,5,2.3,2.2-.3,5.5-1.9,5.1-5Z" transform="translate(-146.4 -242.8734)"/><path d="M365,372l5-.6,4,31.4-5,.6Z" transform="translate(-146.4 -242.8734)"/><path d="M380,391.7c0.5,3.6,2.8,6.5,7,5.9a5.4535,5.4535,0,0,0,5.1-4.5l4.8-.6c-0.5,5.1-4.3,8.4-9.3,9.1-7.1.9-11.8-3.5-12.7-10.5-0.8-6.5,2.7-12.6,9.5-13.4,7.2-.9,12.4,5,12.5,11.9Zm11.3-4.8c-0.6-3.1-3.1-5.7-6.5-5.3-3.5.4-5.5,3.4-5.2,6.8Z" transform="translate(-146.4 -242.8734)"/></svg>